<?xml version="1.0" encoding="UTF-8" standalone="no"?>
<!-- Created with Inkscape (http://www.inkscape.org/) -->

<svg
   xmlns:dc="http://purl.org/dc/elements/1.1/"
   xmlns:cc="http://creativecommons.org/ns#"
   xmlns:rdf="http://www.w3.org/1999/02/22-rdf-syntax-ns#"
   xmlns:svg="http://www.w3.org/2000/svg"
   xmlns="http://www.w3.org/2000/svg"
   xmlns:sodipodi="http://sodipodi.sourceforge.net/DTD/sodipodi-0.dtd"
   xmlns:inkscape="http://www.inkscape.org/namespaces/inkscape"
   version="1.0"
   width="107.81mm"
   height="116.19mm"
   id="svg2"
   inkscape:version="0.48.4 r9939"
   sodipodi:docname="batsu.svg">
  <sodipodi:namedview
     pagecolor="#ffffff"
     bordercolor="#666666"
     borderopacity="1"
     objecttolerance="10"
     gridtolerance="10"
     guidetolerance="10"
     inkscape:pageopacity="0"
     inkscape:pageshadow="2"
     inkscape:window-width="769"
     inkscape:window-height="480"
     id="namedview16"
     showgrid="false"
     inkscape:zoom="0.5732373"
     inkscape:cx="191.00197"
     inkscape:cy="205.84843"
     inkscape:window-x="0"
     inkscape:window-y="0"
     inkscape:window-maximized="0"
     inkscape:current-layer="svg2" />
  <metadata
     id="metadata28">
    <rdf:RDF>
      <cc:Work
         rdf:about="">
        <dc:format>image/svg+xml</dc:format>
        <dc:type
           rdf:resource="http://purl.org/dc/dcmitype/StillImage" />
        <dc:title />
      </cc:Work>
    </rdf:RDF>
  </metadata>
  <defs
     id="defs4">
    <clipPath
       id="clipEmfPath1">
      <rect
         width="8998.915"
         height="8998.8389"
         x="-4499.4575"
         y="-4499.4194"
         id="rect7" />
    </clipPath>
    <clipPath
       id="clipEmfPath2">
      <rect
         width="382.00394"
         height="411.69687"
         x="0"
         y="0"
         id="rect10" />
    </clipPath>
    <clipPath
       id="clipEmfPath3">
      <rect
         width="8998.915"
         height="8998.8389"
         x="-4499.4575"
         y="-4499.4194"
         id="rect13" />
    </clipPath>
    <clipPath
       id="clipEmfPath4">
      <rect
         width="382.15393"
         height="411.84686"
         x="0"
         y="0"
         id="rect16" />
    </clipPath>
  </defs>
  <path
     d="m 35.695696,0.74990322 5.099385,5.54928388 4.949403,5.6992649 4.799421,5.699264 4.64944,5.399303 4.499457,5.399303 4.199494,5.399304 8.249005,10.348664 7.649078,10.198684 7.499095,9.898722 7.199132,9.598762 7.199134,9.2988 7.19913,8.998838 7.19913,8.848854 7.64908,8.69888 3.74955,4.19946 4.04951,4.19946 4.19949,4.19946 4.34948,4.34943 4.49946,4.19946 4.64944,4.19946 4.79942,4.19946 5.24936,4.34944 5.24937,4.19946 5.54933,4.34943 8.54897,6.59915 8.84893,7.04909 8.24901,7.19907 7.94904,7.34906 7.64908,7.34905 7.19913,7.49903 7.04915,7.49903 6.5992,7.64901 6.44923,7.49904 6.29924,7.64901 5.99927,7.64901 5.8493,7.49903 11.24864,14.99807 11.09866,14.99806 10.7987,14.54813 10.94868,14.24816 5.54933,6.89911 5.54933,6.74913 5.8493,6.74912 5.84929,6.59915 6.14926,6.44917 6.14926,6.14921 6.5992,6.29918 6.59921,5.84925 7.04915,5.84924 7.34911,5.69927 7.64908,5.54928 8.09902,5.39931 -22.3473,33.14572 -9.1489,-6.14921 -8.84893,-6.29919 -8.39899,-6.59914 -7.94904,-6.59915 -7.64908,-6.89911 -7.34911,-6.89911 -6.89917,-7.04909 -6.74919,-7.19907 -6.44922,-7.19907 -6.29924,-7.34905 -5.99928,-7.34906 -5.99927,-7.34905 -11.39863,-14.6981 -10.94868,-14.84809 -10.7987,-14.54812 -10.94868,-14.6981 -5.54933,-7.04909 -5.69931,-7.19907 -5.69931,-7.04909 -5.99928,-7.04909 -5.99928,-6.89911 -6.29924,-6.74913 -6.5992,-6.74913 -6.74919,-6.59915 -7.04915,-6.59915 -7.34911,-6.29918 -7.79906,-6.44917 -8.54897,-6.59915 -6.29924,-4.79938 -5.99928,-4.79938 -5.69931,-4.6494 -5.39935,-4.79938 -5.24936,-4.79938 -5.09939,-4.79938 -4.79942,-4.79938 -4.64944,-4.79938 -4.64944,-4.6494 -4.349475,-4.94937 -8.249006,-9.44878 -7.949041,-9.59876 -7.499096,-9.44878 L 62.69244,97.937361 55.343327,88.3386 48.144195,78.739838 40.645099,68.991096 32.696057,58.942393 28.646546,53.993032 24.597034,48.89369 20.247558,43.644368 15.748101,38.395045 11.098662,33.145722 5.9992766,27.596439 z"
     clip-path="url(#clipEmfPath2)"
     id="path22"
     style="fill:#ff0000;fill-opacity:1;fill-rule:nonzero;stroke:#ff0000;stroke-width:0.14998192px;stroke-linecap:round;stroke-linejoin:round;stroke-opacity:1;stroke-dasharray:none" />
  <path
     d="m 380.35414,30.14611 -7.64908,6.149206 -7.34912,5.849245 -7.19913,5.699265 -6.74918,5.699264 -6.74919,5.699265 -6.44922,5.699264 -6.44922,5.699265 -6.14926,5.549283 -5.99928,5.699265 -5.84929,5.549284 -11.24865,11.248548 -10.94868,11.248546 -10.34875,11.24855 -10.19877,11.39853 -10.04879,11.69849 -9.8988,11.84847 -9.89881,12.14843 -9.89881,12.4484 -10.04879,12.89833 -10.34875,13.34828 -10.64871,13.79822 -12.59848,13.9482 -11.54861,12.29841 -11.24865,11.84847 -11.24864,11.54851 -10.94868,11.24855 -10.64872,10.94859 -10.49873,10.7986 -10.34875,10.79861 -10.04879,10.49865 -9.748824,10.64862 -9.748824,10.64863 -9.298879,10.64862 -9.148897,10.94859 -8.848933,11.09857 -8.698951,11.39853 -8.548969,11.69849 -32.3960936,-23.54696 9.1488966,-12.4484 9.298879,-12.14843 9.44886,-11.84847 9.598843,-11.39853 9.898806,-11.24855 9.898807,-11.09857 10.19877,-10.7986 10.19877,-10.79861 10.498734,-10.94859 10.498735,-10.7986 10.64872,-10.94859 10.79869,-11.09857 10.94868,-11.39853 11.09866,-11.54851 11.24865,-11.99845 10.49873,-11.39853 10.64872,-13.79822 10.49873,-13.49825 10.19877,-13.04832 10.19877,-12.89834 10.19877,-12.59837 10.34875,-12.29841 10.34876,-12.14843 10.79869,-11.998456 11.09867,-11.998452 11.39862,-11.84847 11.84857,-11.698491 6.14926,-5.849245 6.44922,-5.999226 6.44923,-5.849245 6.5992,-5.999225 6.89917,-5.999226 7.04915,-5.999226 7.19913,-5.999226 7.4991,-5.999226 7.64907,-6.149206 7.64908,-5.9992258 z"
     clip-path="url(#clipEmfPath2)"
     id="path24"
     style="fill:#ff0000;fill-opacity:1;fill-rule:nonzero;stroke:#ff0000;stroke-width:0.14998192px;stroke-linecap:round;stroke-linejoin:round;stroke-opacity:1;stroke-dasharray:none" />
</svg>
